<?xml version="1.0"?><svg xmlns="http://www.w3.org/2000/svg"  viewBox="0 0 50 50" width="50px" height="50px">    <path d="M49.376,23.435L26.566,0.624c-0.831-0.832-2.28-0.832-3.111,0L0.645,23.435C0.229,23.851,0,24.403,0,24.991 s0.229,1.14,0.645,1.554l22.81,22.811C23.87,49.771,24.422,50,25.01,50s1.14-0.229,1.556-0.645l22.81-22.81 c0.416-0.415,0.645-0.967,0.645-1.555S49.792,23.851,49.376,23.435z M34.021,17.99v1c0,2.209-1.791,4-4,4v-9 C32.23,13.99,34.021,15.781,34.021,17.99z M28.021,10.99v3v9v3h-6v-3v-9v-3H28.021z M17.021,13.979l3,0.006v9l-3-0.006V13.979z M25.021,43.99l-18-18h8l10,10l10-10h8L25.021,43.99z"/></svg>